<?xml version="1.0" encoding="UTF-8"?>
<svg width="110px" height="64px" viewBox="0 0 110 64" version="1.1" xmlns="http://www.w3.org/2000/svg" xmlns:xlink="http://www.w3.org/1999/xlink">
    <!-- Generator: Sketch 59.1 (86144) - https://sketch.com -->
    <title>AF_logo</title>
    <desc>Created with Sketch.</desc>
    <g id="Page-1" stroke="none" stroke-width="1" fill="none" fill-rule="evenodd">
        <g id="AF_logo" transform="translate(-3.000000, -20.000000)">
            <g transform="translate(3.000000, 3.000000)">
                <polygon id="Background" fill="#000000" points="110 17 110 81 0 81 54.0297226 17"></polygon>
                <g id="Letters" transform="translate(26.000000, 0.000000)" fill="#FFFFFF" fill-rule="nonzero">
                    <path d="M47.6395755,26.0020071 L47.6395755,26.8802414 L57.0654181,26.8802414 C58.7508337,26.8802414 60.1865581,27.1311655 61.4350141,27.5702826 C62.6210472,28.0093997 63.6822348,28.6994409 64.6185768,29.5149442 C65.5549188,30.3931784 66.3664152,31.4596057 67.053066,32.6514951 C67.7397167,33.8433844 68.3639447,35.2234668 68.9257499,36.7290113 L69.7372463,36.7290113 L69.7372463,26.0020071 L47.6395755,26.0020071 Z" id="Path"></path>
                    <path d="M47.6393219,50.1469489 L47.6393219,51.025855 L50.5691891,51.025855 C51.5749643,51.025855 52.4495515,50.9379643 53.1492213,51.2895268 C53.8051617,51.6410892 54.3736434,52.1244875 54.8546663,52.6957765 C55.3356893,53.3110107 55.6855242,54.0141356 55.9916297,54.805151 C56.2540059,55.5961665 56.4726527,56.4311273 56.6912995,57.266088 L57.2597812,57.266088 L57.2597812,43.5990987 L56.6912995,43.5990987 C56.4726527,44.6098407 56.2102765,45.4887467 55.904171,46.2797622 C55.5980655,47.114723 55.1607719,47.7739025 54.6797489,48.3451914 C54.1987259,48.9164804 53.5427855,49.3559334 52.8431158,49.6635505 C52.0997167,49.9711677 51.1814001,50.1469489 50.0881661,50.1469489 L47.6393219,50.1469489 Z" id="Path"></path>
                    <polygon id="Path" points="45.237003 26.0028414 45.1936539 71.5459597 50.1831408 71.5459597 50.1831408 72.4237576 29.2086557 72.4237576 29.2086557 71.5459597 35.5029519 71.5459597 35.5376312 51.3370042 35.5376312 51.3370042 35.5376312 51.0233493 35.5376312 50.1455514 35.5376312 36.7302725 24.2711878 50.1455514 33.1209163 50.1455514 33.1209163 51.0233493 23.5797689 51.0233493 6.24227726 71.5459597 11.4181655 71.5459597 11.4181655 72.4237576 0 72.4237576 0 71.5459597 5.24307941 71.5459597 43.5507212 26.0028414"></polygon>
                </g>
            </g>
        </g>
    </g>
</svg>