<?xml version="1.0" encoding="UTF-8"?>
<svg width="54px" height="32px" viewBox="0 0 54 32" version="1.1" xmlns="http://www.w3.org/2000/svg" xmlns:xlink="http://www.w3.org/1999/xlink">
    <!-- Generator: Sketch 59.1 (86144) - https://sketch.com -->
    <title>AF_logo</title>
    <desc>Created with Sketch.</desc>
    <g id="Page-1" stroke="none" stroke-width="1" fill="none" fill-rule="evenodd">
        <g id="AF_logo" transform="translate(-3.000000, -11.000000)">
            <g transform="translate(3.000000, 3.000000)">
                <polygon id="Background" fill="#000000" points="53.711545 8.32068376 53.711545 39.5608674 -3.55271368e-15 39.5608674 26.3819989 8.32068376"></polygon>
                <g id="Letters" transform="translate(12.662180, 0.000000)" fill="#FFFFFF" fill-rule="nonzero">
                    <path d="M23.2904591,12.6496251 L23.2904591,13.0768742 L27.8986489,13.0768742 C28.7226298,13.0768742 29.4245395,13.1989454 30.0348958,13.4125699 C30.6147342,13.6261945 31.133537,13.9618902 31.5913042,14.3586215 C32.0490714,14.7858706 32.445803,15.3046731 32.7814989,15.8845111 C33.1171949,16.4643492 33.422373,17.1357406 33.6970333,17.8681677 L34.0937649,17.8681677 L34.0937649,12.6496251 L23.2904591,12.6496251 Z" id="Path"></path>
                    <path d="M23.2903352,24.395813 L23.2903352,24.8233889 L24.7227146,24.8233889 C25.214427,24.8233889 25.642003,24.7806313 25.9840637,24.9516617 C26.3047457,25.122692 26.5826701,25.3578588 26.8178369,25.6357832 C27.0530037,25.9350863 27.224034,26.277147 27.3736856,26.6619654 C27.5019584,27.0467837 27.6088524,27.4529808 27.7157464,27.859178 L27.9936708,27.859178 L27.9936708,21.2103723 L27.7157464,21.2103723 C27.6088524,21.7020846 27.4805796,22.1296606 27.330928,22.5144789 C27.1812765,22.920676 26.9674885,23.241358 26.7323217,23.5192823 C26.4971549,23.7972067 26.1764729,24.0109946 25.8344122,24.1606462 C25.4709726,24.3102978 25.0220178,24.395813 24.4875479,24.395813 L23.2903352,24.395813 Z" id="Path"></path>
                    <polygon id="Path" points="22.1158681 12.650031 22.0946752 34.8061426 24.5339799 34.8061426 24.5339799 35.2331794 14.2797872 35.2331794 14.2797872 34.8061426 17.3569987 34.8061426 17.373953 24.9747588 17.373953 24.9747588 17.373953 24.8221699 17.373953 24.3951331 17.373953 17.8687812 11.865914 24.3951331 16.1924479 24.3951331 16.1924479 24.8221699 11.527887 24.8221699 3.05177999 34.8061426 5.58221424 34.8061426 5.58221424 35.2331794 0 35.2331794 0 34.8061426 2.56328327 34.8061426 21.2914637 12.650031"></polygon>
                </g>
            </g>
        </g>
    </g>
</svg>